<svg width="30" height="30" viewBox="0 0 30 30" fill="none" xmlns="http://www.w3.org/2000/svg">
<path d="M12.4142 15L18.7071 21.2929C19.0976 21.6834 19.0976 22.3166 18.7071 22.7071C18.3166 23.0976 17.6834 23.0976 17.2929 22.7071L10.2929 15.7071C9.90237 15.3166 9.90237 14.6834 10.2929 14.2929L17.2929 7.29289C17.6834 6.90237 18.3166 6.90237 18.7071 7.29289C19.0976 7.68342 19.0976 8.31658 18.7071 8.70711L12.4142 15Z" fill="currentColor"/>
<mask id="mask0_0_604" style="mask-type:luminance" maskUnits="userSpaceOnUse" x="10" y="7" width="9" height="16">
<path d="M12.4142 15L18.7071 21.2929C19.0976 21.6834 19.0976 22.3166 18.7071 22.7071C18.3166 23.0976 17.6834 23.0976 17.2929 22.7071L10.2929 15.7071C9.90237 15.3166 9.90237 14.6834 10.2929 14.2929L17.2929 7.29289C17.6834 6.90237 18.3166 6.90237 18.7071 7.29289C19.0976 7.68342 19.0976 8.31658 18.7071 8.70711L12.4142 15Z" fill="white"/>
</mask>
<g mask="url(#mask0_0_604)">
</g>
</svg>
