<svg width="30" height="30" viewBox="0 0 30 30" fill="none" xmlns="http://www.w3.org/2000/svg">
    <path fill-rule="evenodd" clip-rule="evenodd"
        d="M5.00182 16H7.00146V24C7.00146 24.5523 7.44909 25 8.00128 25H14H16H21.9987C22.5509 25 22.9985 24.5523 22.9985 24V16H24.9982C25.8889 16 26.335 14.9229 25.7052 14.2929L15.707 4.29289C15.3165 3.90237 14.6835 3.90237 14.293 4.29289L4.29484 14.2929C3.66499 14.9229 4.11108 16 5.00182 16ZM18 17V23H21V15C21 14.4477 21.4477 14 22 14H22.5858L15 6.41421L7.41421 14H8C8.55228 14 9 14.4477 9 15V23H12V17C12 15.8954 12.8954 15 14 15H16C17.1046 15 18 15.8954 18 17ZM14 23V17H16V23H14Z"
        fill="currentColor" />
    <mask id="mask0_0_554" style="mask-type:luminance" maskUnits="userSpaceOnUse" x="4" y="4" width="22" height="21">
        <path fill-rule="evenodd" clip-rule="evenodd"
            d="M5.00182 16H7.00146V24C7.00146 24.5523 7.44909 25 8.00128 25H14H16H21.9987C22.5509 25 22.9985 24.5523 22.9985 24V16H24.9982C25.8889 16 26.335 14.9229 25.7052 14.2929L15.707 4.29289C15.3165 3.90237 14.6835 3.90237 14.293 4.29289L4.29484 14.2929C3.66499 14.9229 4.11108 16 5.00182 16ZM18 17V23H21V15C21 14.4477 21.4477 14 22 14H22.5858L15 6.41421L7.41421 14H8C8.55228 14 9 14.4477 9 15V23H12V17C12 15.8954 12.8954 15 14 15H16C17.1046 15 18 15.8954 18 17ZM14 23V17H16V23H14Z"
            fill="currentColor" />
    </mask>
    <g mask="url(#mask0_0_554)">
        <rect width="30" height="30" fill="currentColor" />
    </g>
</svg>